<?xml version="1.0" standalone="no"?><!DOCTYPE svg PUBLIC "-//W3C//DTD SVG 1.1//EN" "http://www.w3.org/Graphics/SVG/1.1/DTD/svg11.dtd"><svg xmlns:xlink="http://www.w3.org/1999/xlink" version="1.1" style="font-family:&quot;Lucida Grande&quot;, &quot;Lucida Sans Unicode&quot;, Arial, Helvetica, sans-serif;font-size:12px;" xmlns="http://www.w3.org/2000/svg" width="600" height="400"><desc>Created with Highcharts 4.1.7</desc><defs><clipPath id="highcharts-1"><rect x="0" y="0" width="519" height="280"></rect></clipPath></defs><rect x="0" y="0" width="600" height="400" strokeWidth="0" fill="#FFFFFF" class=" highcharts-background"></rect><g class="highcharts-grid" zIndex="1"></g><g class="highcharts-grid" zIndex="1"><path fill="none" d="M 71 326.5 L 590 326.5" stroke="#D8D8D8" stroke-width="1" zIndex="1" opacity="1"></path><path fill="none" d="M 71 270.5 L 590 270.5" stroke="#D8D8D8" stroke-width="1" zIndex="1" opacity="1"></path><path fill="none" d="M 71 214.5 L 590 214.5" stroke="#D8D8D8" stroke-width="1" zIndex="1" opacity="1"></path><path fill="none" d="M 71 158.5 L 590 158.5" stroke="#D8D8D8" stroke-width="1" zIndex="1" opacity="1"></path><path fill="none" d="M 71 102.5 L 590 102.5" stroke="#D8D8D8" stroke-width="1" zIndex="1" opacity="1"></path><path fill="none" d="M 71 45.5 L 590 45.5" stroke="#D8D8D8" stroke-width="1" zIndex="1" opacity="1"></path></g><g class="highcharts-axis" zIndex="2"><path fill="none" d="M 113.5 326 L 113.5 336" stroke="#C0D0E0" stroke-width="1" opacity="1"></path><path fill="none" d="M 157.5 326 L 157.5 336" stroke="#C0D0E0" stroke-width="1" opacity="1"></path><path fill="none" d="M 200.5 326 L 200.5 336" stroke="#C0D0E0" stroke-width="1" opacity="1"></path><path fill="none" d="M 243.5 326 L 243.5 336" stroke="#C0D0E0" stroke-width="1" opacity="1"></path><path fill="none" d="M 286.5 326 L 286.5 336" stroke="#C0D0E0" stroke-width="1" opacity="1"></path><path fill="none" d="M 330.5 326 L 330.5 336" stroke="#C0D0E0" stroke-width="1" opacity="1"></path><path fill="none" d="M 373.5 326 L 373.5 336" stroke="#C0D0E0" stroke-width="1" opacity="1"></path><path fill="none" d="M 416.5 326 L 416.5 336" stroke="#C0D0E0" stroke-width="1" opacity="1"></path><path fill="none" d="M 459.5 326 L 459.5 336" stroke="#C0D0E0" stroke-width="1" opacity="1"></path><path fill="none" d="M 503.5 326 L 503.5 336" stroke="#C0D0E0" stroke-width="1" opacity="1"></path><path fill="none" d="M 546.5 326 L 546.5 336" stroke="#C0D0E0" stroke-width="1" opacity="1"></path><path fill="none" d="M 590.5 326 L 590.5 336" stroke="#C0D0E0" stroke-width="1" opacity="1"></path><path fill="none" d="M 70.5 326 L 70.5 336" stroke="#C0D0E0" stroke-width="1" opacity="1"></path><path fill="none" d="M 0 0" stroke="#C0D0E0" stroke-width="1" zIndex="7" visibility="visible"></path></g><g class="highcharts-axis" zIndex="2"><text x="25" zIndex="7" text-anchor="middle" transform="translate(0,0) rotate(270 25 186)" class=" highcharts-yaxis-title" style="color:#707070;fill:#707070;" visibility="visible" y="186">Values</text></g><g class="highcharts-series-group" zIndex="3"><g class="highcharts-series" visibility="visible" zIndex="0.1" transform="translate(71,46) scale(1 1)" clip-path="url(#highcharts-1)"><path fill="none" d="M 21.625 246.512 L 64.875 199.92 L 108.125 160.832 L 151.375 135.296 L 194.625 118.71999999999997 L 237.875 82.88 L 281.125 128.128 L 324.375 113.67999999999998 L 367.625 37.63199999999998 L 410.875 62.607999999999976 L 454.125 172.928 L 497.375 219.072" stroke="#7cb5ec" stroke-width="2" zIndex="1" stroke-linejoin="round" stroke-linecap="round"></path><path fill="none" d="M 11.625 246.512 L 21.625 246.512 L 64.875 199.92 L 108.125 160.832 L 151.375 135.296 L 194.625 118.71999999999997 L 237.875 82.88 L 281.125 128.128 L 324.375 113.67999999999998 L 367.625 37.63199999999998 L 410.875 62.607999999999976 L 454.125 172.928 L 497.375 219.072 L 507.375 219.072" stroke-linejoin="round" visibility="visible" stroke="rgba(192,192,192,0.0001)" stroke-width="22" zIndex="2" class=" highcharts-tracker" style=""></path></g><g class="highcharts-markers highcharts-tracker" visibility="visible" zIndex="0.1" transform="translate(71,46) scale(1 1)" style="" clip-path="none"><path fill="#7cb5ec" d="M 497 215.072 C 502.328 215.072 502.328 223.072 497 223.072 C 491.672 223.072 491.672 215.072 497 215.072 Z"></path><path fill="#7cb5ec" d="M 454 168.928 C 459.328 168.928 459.328 176.928 454 176.928 C 448.672 176.928 448.672 168.928 454 168.928 Z"></path><path fill="#7cb5ec" d="M 410 58.607999999999976 C 415.328 58.607999999999976 415.328 66.60799999999998 410 66.60799999999998 C 404.672 66.60799999999998 404.672 58.607999999999976 410 58.607999999999976 Z"></path><path fill="#7cb5ec" d="M 367 33.63199999999998 C 372.328 33.63199999999998 372.328 41.63199999999998 367 41.63199999999998 C 361.672 41.63199999999998 361.672 33.63199999999998 367 33.63199999999998 Z"></path><path fill="#7cb5ec" d="M 324 109.67999999999998 C 329.328 109.67999999999998 329.328 117.67999999999998 324 117.67999999999998 C 318.672 117.67999999999998 318.672 109.67999999999998 324 109.67999999999998 Z"></path><path fill="#7cb5ec" d="M 281 124.12799999999999 C 286.328 124.12799999999999 286.328 132.128 281 132.128 C 275.672 132.128 275.672 124.12799999999999 281 124.12799999999999 Z"></path><path fill="#7cb5ec" d="M 237 78.88 C 242.328 78.88 242.328 86.88 237 86.88 C 231.672 86.88 231.672 78.88 237 78.88 Z"></path><path fill="#7cb5ec" d="M 194 114.71999999999997 C 199.328 114.71999999999997 199.328 122.71999999999997 194 122.71999999999997 C 188.672 122.71999999999997 188.672 114.71999999999997 194 114.71999999999997 Z"></path><path fill="#7cb5ec" d="M 151 131.296 C 156.328 131.296 156.328 139.296 151 139.296 C 145.672 139.296 145.672 131.296 151 131.296 Z"></path><path fill="#7cb5ec" d="M 108 156.832 C 113.328 156.832 113.328 164.832 108 164.832 C 102.672 164.832 102.672 156.832 108 156.832 Z"></path><path fill="#7cb5ec" d="M 64 195.92 C 69.328 195.92 69.328 203.92 64 203.92 C 58.672 203.92 58.672 195.92 64 195.92 Z"></path><path fill="#7cb5ec" d="M 21 242.512 C 26.328 242.512 26.328 250.512 21 250.512 C 15.672 250.512 15.672 242.512 21 242.512 Z"></path></g></g><text x="300" text-anchor="middle" class="highcharts-title" zIndex="4" style="color:#333333;font-size:18px;fill:#333333;width:536px;" y="24"><tspan>Chart title</tspan></text><g class="highcharts-legend" zIndex="7" transform="translate(257,359)"><g zIndex="1"><g><g class="highcharts-legend-item" zIndex="1" transform="translate(8,3)"><path fill="none" d="M 0 11 L 16 11" stroke="#7cb5ec" stroke-width="2"></path><path fill="#7cb5ec" d="M 8 7 C 13.328 7 13.328 15 8 15 C 2.6719999999999997 15 2.6719999999999997 7 8 7 Z"></path><text x="21" style="color:#333333;font-size:12px;font-weight:bold;cursor:pointer;fill:#333333;" text-anchor="start" zIndex="2" y="15"><tspan>Series 1</tspan></text></g></g></g></g><g class="highcharts-axis-labels highcharts-xaxis-labels" zIndex="7"><text x="92.625" style="color:#606060;cursor:default;font-size:11px;fill:#606060;" text-anchor="middle" transform="translate(0,0)" y="345" opacity="1">Jan</text><text x="135.875" style="color:#606060;cursor:default;font-size:11px;fill:#606060;" text-anchor="middle" transform="translate(0,0)" y="345" opacity="1">Feb</text><text x="179.125" style="color:#606060;cursor:default;font-size:11px;fill:#606060;" text-anchor="middle" transform="translate(0,0)" y="345" opacity="1">Mar</text><text x="222.375" style="color:#606060;cursor:default;font-size:11px;fill:#606060;" text-anchor="middle" transform="translate(0,0)" y="345" opacity="1">Apr</text><text x="265.625" style="color:#606060;cursor:default;font-size:11px;fill:#606060;" text-anchor="middle" transform="translate(0,0)" y="345" opacity="1">May</text><text x="308.875" style="color:#606060;cursor:default;font-size:11px;fill:#606060;" text-anchor="middle" transform="translate(0,0)" y="345" opacity="1">Jun</text><text x="352.125" style="color:#606060;cursor:default;font-size:11px;fill:#606060;" text-anchor="middle" transform="translate(0,0)" y="345" opacity="1">Jul</text><text x="395.375" style="color:#606060;cursor:default;font-size:11px;fill:#606060;" text-anchor="middle" transform="translate(0,0)" y="345" opacity="1">Aug</text><text x="438.625" style="color:#606060;cursor:default;font-size:11px;fill:#606060;" text-anchor="middle" transform="translate(0,0)" y="345" opacity="1">Sep</text><text x="481.875" style="color:#606060;cursor:default;font-size:11px;fill:#606060;" text-anchor="middle" transform="translate(0,0)" y="345" opacity="1">Oct</text><text x="525.125" style="color:#606060;cursor:default;font-size:11px;fill:#606060;" text-anchor="middle" transform="translate(0,0)" y="345" opacity="1">Nov</text><text x="568.375" style="color:#606060;cursor:default;font-size:11px;fill:#606060;" text-anchor="middle" transform="translate(0,0)" y="345" opacity="1">Dec</text></g><g class="highcharts-axis-labels highcharts-yaxis-labels" zIndex="7"><text x="56" style="color:#606060;cursor:default;font-size:11px;fill:#606060;width:188px;text-overflow:clip;" text-anchor="end" transform="translate(0,0)" y="331" opacity="1">0</text><text x="56" style="color:#606060;cursor:default;font-size:11px;fill:#606060;width:188px;text-overflow:clip;" text-anchor="end" transform="translate(0,0)" y="275" opacity="1">50</text><text x="56" style="color:#606060;cursor:default;font-size:11px;fill:#606060;width:188px;text-overflow:clip;" text-anchor="end" transform="translate(0,0)" y="219" opacity="1">100</text><text x="56" style="color:#606060;cursor:default;font-size:11px;fill:#606060;width:188px;text-overflow:clip;" text-anchor="end" transform="translate(0,0)" y="162" opacity="1">150</text><text x="56" style="color:#606060;cursor:default;font-size:11px;fill:#606060;width:188px;text-overflow:clip;" text-anchor="end" transform="translate(0,0)" y="106" opacity="1">200</text><text x="56" style="color:#606060;cursor:default;font-size:11px;fill:#606060;width:188px;text-overflow:clip;" text-anchor="end" transform="translate(0,0)" y="51" opacity="1">250</text></g><g class="highcharts-tooltip" zIndex="8" style="cursor:default;padding:0;white-space:nowrap;" transform="translate(0,-9999)"><path fill="none" d="M 3.5 0.5 L 13.5 0.5 C 16.5 0.5 16.5 0.5 16.5 3.5 L 16.5 13.5 C 16.5 16.5 16.5 16.5 13.5 16.5 L 3.5 16.5 C 0.5 16.5 0.5 16.5 0.5 13.5 L 0.5 3.5 C 0.5 0.5 0.5 0.5 3.5 0.5" isShadow="true" stroke="black" stroke-width="5" transform="translate(1, 1)" opacity="0.049999999999999996"></path><path fill="none" d="M 3.5 0.5 L 13.5 0.5 C 16.5 0.5 16.5 0.5 16.5 3.5 L 16.5 13.5 C 16.5 16.5 16.5 16.5 13.5 16.5 L 3.5 16.5 C 0.5 16.5 0.5 16.5 0.5 13.5 L 0.5 3.5 C 0.5 0.5 0.5 0.5 3.5 0.5" isShadow="true" stroke="black" stroke-width="3" transform="translate(1, 1)" opacity="0.09999999999999999"></path><path fill="none" d="M 3.5 0.5 L 13.5 0.5 C 16.5 0.5 16.5 0.5 16.5 3.5 L 16.5 13.5 C 16.5 16.5 16.5 16.5 13.5 16.5 L 3.5 16.5 C 0.5 16.5 0.5 16.5 0.5 13.5 L 0.5 3.5 C 0.5 0.5 0.5 0.5 3.5 0.5" isShadow="true" stroke="black" stroke-width="1" transform="translate(1, 1)" opacity="0.15"></path><path fill="rgba(249, 249, 249, .85)" d="M 3.5 0.5 L 13.5 0.5 C 16.5 0.5 16.5 0.5 16.5 3.5 L 16.5 13.5 C 16.5 16.5 16.5 16.5 13.5 16.5 L 3.5 16.5 C 0.5 16.5 0.5 16.5 0.5 13.5 L 0.5 3.5 C 0.5 0.5 0.5 0.5 3.5 0.5"></path><text x="8" zIndex="1" style="font-size:12px;color:#333333;fill:#333333;" y="20"></text></g><text x="590" text-anchor="end" zIndex="8" style="cursor:pointer;color:#909090;font-size:9px;fill:#909090;" y="395">Highcharts.com</text></svg>